<?xml version="1.0" encoding="UTF-8" standalone="no"?>
<svg
   xmlns:dc="http://purl.org/dc/elements/1.1/"
   xmlns:cc="http://creativecommons.org/ns#"
   xmlns:rdf="http://www.w3.org/1999/02/22-rdf-syntax-ns#"
   xmlns:svg="http://www.w3.org/2000/svg"
   xmlns="http://www.w3.org/2000/svg"
   viewBox="0 0 2560 1440"
   height="1440"
   width="2560"
   xml:space="preserve"
   id="svg2"
   version="1.1"><metadata
     id="metadata8"><rdf:RDF><cc:Work
         rdf:about=""><dc:format>image/svg+xml</dc:format><dc:type
           rdf:resource="http://purl.org/dc/dcmitype/StillImage" /></cc:Work></rdf:RDF></metadata><defs
     id="defs6"><clipPath
       id="clipPath24"
       clipPathUnits="userSpaceOnUse"><path
         id="path22"
         d="M 0,1080 H 1920 V 0 H 0 Z" /></clipPath><clipPath
       id="clipPath72"
       clipPathUnits="userSpaceOnUse"><path
         id="path70"
         d="m 1043.008,706.315 -32.85,-90.47 90.471,90.47 -90.471,90.47 z" /></clipPath><clipPath
       id="clipPath80"
       clipPathUnits="userSpaceOnUse"><path
         id="path78"
         d="m 997.251,798.318 h 76.689 v -92.003 h -76.689 z" /></clipPath><clipPath
       id="clipPath100"
       clipPathUnits="userSpaceOnUse"><path
         id="path98"
         d="M 0,1080 H 1920 V 0 H 0 Z" /></clipPath><clipPath
       id="clipPath112"
       clipPathUnits="userSpaceOnUse"><path
         id="path110"
         d="m 971.575,706.315 -32.85,-90.47 90.47,90.47 -90.47,90.47 z" /></clipPath><clipPath
       id="clipPath120"
       clipPathUnits="userSpaceOnUse"><path
         id="path118"
         d="m 925.818,798.318 h 76.692 v -92.003 h -76.692 z" /></clipPath><linearGradient
       id="linearGradient154"
       spreadMethod="pad"
       gradientTransform="matrix(-555.67059,-230.40001,-230.40001,555.67059,1228.8962,609.21558)"
       gradientUnits="userSpaceOnUse"
       y2="0"
       x2="1"
       y1="0"
       x1="0"><stop
         id="stop150"
         offset="0"
         style="stop-opacity:1;stop-color:#89db37" /><stop
         id="stop152"
         offset="1"
         style="stop-opacity:1;stop-color:#2ec733" /></linearGradient><linearGradient
       id="linearGradient174"
       spreadMethod="pad"
       gradientTransform="matrix(-555.67059,-230.40001,-230.40001,555.67059,1246.8197,565.98859)"
       gradientUnits="userSpaceOnUse"
       y2="0"
       x2="1"
       y1="0"
       x1="0"><stop
         id="stop170"
         offset="0"
         style="stop-opacity:1;stop-color:#89db37" /><stop
         id="stop172"
         offset="1"
         style="stop-opacity:1;stop-color:#2ec733" /></linearGradient><linearGradient
       id="linearGradient194"
       spreadMethod="pad"
       gradientTransform="matrix(-555.67059,-230.40001,-230.40001,555.67059,1271.6045,506.21347)"
       gradientUnits="userSpaceOnUse"
       y2="0"
       x2="1"
       y1="0"
       x1="0"><stop
         id="stop190"
         offset="0"
         style="stop-opacity:1;stop-color:#89db37" /><stop
         id="stop192"
         offset="1"
         style="stop-opacity:1;stop-color:#2ec733" /></linearGradient><linearGradient
       id="linearGradient214"
       spreadMethod="pad"
       gradientTransform="matrix(-555.67059,-230.40001,-230.40001,555.67059,1299.7408,438.35522)"
       gradientUnits="userSpaceOnUse"
       y2="0"
       x2="1"
       y1="0"
       x1="0"><stop
         id="stop210"
         offset="0"
         style="stop-opacity:1;stop-color:#89db37" /><stop
         id="stop212"
         offset="1"
         style="stop-opacity:1;stop-color:#2ec733" /></linearGradient><linearGradient
       id="linearGradient234"
       spreadMethod="pad"
       gradientTransform="matrix(-555.67059,-230.40001,-230.40001,555.67059,1330.4379,364.32111)"
       gradientUnits="userSpaceOnUse"
       y2="0"
       x2="1"
       y1="0"
       x1="0"><stop
         id="stop230"
         offset="0"
         style="stop-opacity:1;stop-color:#89db37" /><stop
         id="stop232"
         offset="1"
         style="stop-opacity:1;stop-color:#2ec733" /></linearGradient><linearGradient
       id="linearGradient254"
       spreadMethod="pad"
       gradientTransform="matrix(-555.67059,-230.40001,-230.40001,555.67059,1230.8962,610.21558)"
       gradientUnits="userSpaceOnUse"
       y2="0"
       x2="1"
       y1="0"
       x1="0"><stop
         id="stop250"
         offset="0"
         style="stop-opacity:1;stop-color:#53a43c" /><stop
         id="stop252"
         offset="1"
         style="stop-opacity:1;stop-color:#2ec733" /></linearGradient><linearGradient
       id="linearGradient274"
       spreadMethod="pad"
       gradientTransform="matrix(-555.67059,-230.40001,-230.40001,555.67059,1248.8197,566.98859)"
       gradientUnits="userSpaceOnUse"
       y2="0"
       x2="1"
       y1="0"
       x1="0"><stop
         id="stop270"
         offset="0"
         style="stop-opacity:1;stop-color:#53a43c" /><stop
         id="stop272"
         offset="1"
         style="stop-opacity:1;stop-color:#2ec733" /></linearGradient><linearGradient
       id="linearGradient294"
       spreadMethod="pad"
       gradientTransform="matrix(-555.67059,-230.40001,-230.40001,555.67059,1273.6045,507.21347)"
       gradientUnits="userSpaceOnUse"
       y2="0"
       x2="1"
       y1="0"
       x1="0"><stop
         id="stop290"
         offset="0"
         style="stop-opacity:1;stop-color:#53a43c" /><stop
         id="stop292"
         offset="1"
         style="stop-opacity:1;stop-color:#2ec733" /></linearGradient><linearGradient
       id="linearGradient314"
       spreadMethod="pad"
       gradientTransform="matrix(-555.67059,-230.40001,-230.40001,555.67059,1301.7408,439.35522)"
       gradientUnits="userSpaceOnUse"
       y2="0"
       x2="1"
       y1="0"
       x1="0"><stop
         id="stop310"
         offset="0"
         style="stop-opacity:1;stop-color:#53a43c" /><stop
         id="stop312"
         offset="1"
         style="stop-opacity:1;stop-color:#2ec733" /></linearGradient><linearGradient
       id="linearGradient334"
       spreadMethod="pad"
       gradientTransform="matrix(-555.67059,-230.40001,-230.40001,555.67059,1332.4379,365.32111)"
       gradientUnits="userSpaceOnUse"
       y2="0"
       x2="1"
       y1="0"
       x1="0"><stop
         id="stop330"
         offset="0"
         style="stop-opacity:1;stop-color:#53a43c" /><stop
         id="stop332"
         offset="1"
         style="stop-opacity:1;stop-color:#2ec733" /></linearGradient></defs><g
     transform="matrix(1.3333333,0,0,-1.3333333,0,1440)"
     id="g10"><path
       id="path12"
       style="fill:#000000;fill-opacity:1;fill-rule:nonzero;stroke:none"
       d="M 0,0 H 1918 V 1080 H 0 Z" /><text
       id="text16"
       style="font-variant:normal;font-weight:normal;font-stretch:normal;font-size:70.98490143px;font-family:'Acumin Variable Concept';-inkscape-font-specification:AcuminVariableConcept;writing-mode:lr-tb;fill:#ffffff;fill-opacity:1;fill-rule:nonzero;stroke:none"
       transform="matrix(1,0,0,-0.8892835,53.2119,985.7881)"><tspan
         id="tspan14"
         y="0"
         x="0 24.986685 49.476475 61.188984 72.901489 94.480904 117.90592 139.48532 162.91034 186.33536 195.91832 221.25993 244.68495 254.26791 267.54208 292.59976 317.94138 342.43115 365.85617 375.43915 399.92892 416.32645 439.82245 454.16138"> 	</tspan></text>
<g
       id="g18"><g
         clip-path="url(#clipPath24)"
         id="g20"><g
           transform="translate(1102.7214,562.6186)"
           id="g26"><path
             id="path28"
             style="fill:#ffffff;fill-opacity:1;fill-rule:nonzero;stroke:none"
             d="M 0,0 C 23.308,15.942 41.522,36.544 54.27,59.699 L 36.515,66.82 c 0,0 -17.355,-53.538 -87.659,-79.223 -70.292,-25.679 -125.305,5.568 -178.509,41.417 C -172.318,-36.584 -73.693,-50.405 0,0" /></g><g
           transform="translate(1156.9911,622.3177)"
           id="g30"><path
             id="path32"
             style="fill:#ffffff;fill-opacity:1;fill-rule:nonzero;stroke:none"
             d="M 0,0 19.334,-6.267 4.862,70.332 -51.798,16.791 -33.632,10.902 c -9.971,-16.213 -23.41,-30.654 -40.136,-42.094 -63.764,-43.613 -150.81,-27.279 -194.423,36.485 -25.648,37.498 -30.555,83.046 -17.285,123.079 0,0 -28.907,-28.01 -40.687,-62.763 2.956,-27.742 12.61,-55.172 29.465,-79.815 3.977,-5.814 8.252,-11.303 12.776,-16.479 53.203,-35.849 108.216,-67.097 178.508,-41.417 70.304,25.685 87.66,79.223 87.66,79.223 z" /></g><g
           transform="translate(840.1718,765.7266)"
           id="g34"><path
             id="path36"
             style="fill:#ffffff;fill-opacity:1;fill-rule:nonzero;stroke:none"
             d="m 0,0 c -8.916,-24.799 -12.152,-51.44 -9.344,-77.8 11.781,34.753 40.688,62.764 40.688,62.764 z" /></g><g
           transform="translate(930.8806,825.6648)"
           id="g38"><path
             id="path40"
             style="fill:#ffffff;fill-opacity:1;fill-rule:nonzero;stroke:none"
             d="m 0,0 -14.346,31.667 c -3.634,-2.12 -7.221,-4.378 -10.748,-6.791 -21.251,-14.535 -38.273,-32.942 -50.776,-53.627 0,0 40.284,31.413 75.87,28.751" /></g><g
           transform="translate(925.2849,822.0336)"
           id="g42"><path
             id="path44"
             style="fill:#ffffff;fill-opacity:1;fill-rule:nonzero;stroke:none"
             d="m 0,0 c 1.846,1.262 3.713,2.469 5.596,3.631 -35.586,2.663 -75.87,-28.75 -75.87,-28.75 l 31.329,-15.03 C -29.103,-24.722 -16.057,-10.983 0,0" /></g><g
           transform="translate(1024.7388,844.94)"
           id="g46"><path
             id="path48"
             style="fill:#02c652;fill-opacity:1;fill-rule:nonzero;stroke:none"
             d="m 0,0 9.363,33.47 c -28.421,4.939 -58.072,2.877 -86.156,-6.718 0,0 35.052,0.702 76.793,-26.752" /></g><g
           transform="translate(1024.7388,844.94)"
           id="g50"><path
             id="path52"
             style="fill:#02c652;fill-opacity:1;fill-rule:nonzero;stroke:none"
             d="m 0,0 c -41.741,27.454 -76.793,26.752 -76.793,26.752 l 14.338,-31.65 C -42.024,1.535 -20.656,3.063 0,0" /></g><g
           transform="translate(1109.0825,799.203)"
           id="g54"><path
             id="path56"
             style="fill:#02c652;fill-opacity:1;fill-rule:nonzero;stroke:none"
             d="M 0,0 28.681,19.618 C 9.325,42.698 -15.038,59.648 -41.701,69.973 -41.701,69.973 -6.571,35.257 0,0" /></g><g
           transform="translate(1109.0825,799.203)"
           id="g58"><path
             id="path60"
             style="fill:#02c652;fill-opacity:1;fill-rule:nonzero;stroke:none"
             d="M 0,0 C -6.571,35.257 -41.701,69.973 -41.701,69.973 L -51.06,36.515 C -31.915,28.565 -14.362,16.295 0,0" /></g><g
           transform="translate(1010.158,615.8447)"
           id="g62"><path
             id="path64"
             style="fill:#ffffff;fill-opacity:1;fill-rule:nonzero;stroke:none"
             d="M 0,0 32.851,90.47 0,180.941 90.471,90.47 Z" /></g></g></g><g
       id="g66"><g
         clip-path="url(#clipPath72)"
         id="g68"><g
           id="g74"><g
             id="g76" /><g
             id="g88"><g
               style="opacity:0.19999701"
               id="g86"
               clip-path="url(#clipPath80)"><g
                 id="g84"
                 transform="translate(997.2515,798.3177)"><path
                   id="path82"
                   style="fill:#ffffff;fill-opacity:1;fill-rule:nonzero;stroke:none"
                   d="M 0,0 12.906,-1.532 76.693,-92.003 H 10.956" /></g></g></g></g><g
           transform="translate(1073.9441,706.3151)"
           id="g90"><path
             id="path92"
             style="fill:#ffffff;fill-opacity:1;fill-rule:nonzero;stroke:none"
             d="m 0,0 -63.786,-90.47 -19.079,3.544 41.107,81.237 L -30.935,0 Z" /></g></g></g><g
       id="g94"><g
         clip-path="url(#clipPath100)"
         id="g96"><g
           transform="translate(938.7248,615.8447)"
           id="g102"><path
             id="path104"
             style="fill:#ffffff;fill-opacity:1;fill-rule:nonzero;stroke:none"
             d="M 0,0 32.851,90.47 0,180.941 90.471,90.47 Z" /></g></g></g><g
       id="g106"><g
         clip-path="url(#clipPath112)"
         id="g108"><g
           id="g114"><g
             id="g116" /><g
             id="g128"><g
               style="opacity:0.19999701"
               id="g126"
               clip-path="url(#clipPath120)"><g
                 id="g124"
                 transform="translate(925.8182,798.3177)"><path
                   id="path122"
                   style="fill:#ffffff;fill-opacity:1;fill-rule:nonzero;stroke:none"
                   d="M 0,0 12.907,-1.532 76.693,-92.003 H 10.956" /></g></g></g></g><g
           transform="translate(1002.5109,706.3151)"
           id="g130"><path
             id="path132"
             style="fill:#ffffff;fill-opacity:1;fill-rule:nonzero;stroke:none"
             d="m 0,0 -63.786,-90.47 -19.079,3.544 41.107,81.237 L -30.935,0 Z" /></g></g></g><text
       id="text136"
       style="font-variant:normal;font-weight:normal;font-stretch:normal;font-size:70.98420715px;font-family:'Acumin Variable Concept';-inkscape-font-specification:AcuminVariableConcept;writing-mode:lr-tb;fill:#ffffff;fill-opacity:1;fill-rule:nonzero;stroke:none"
       transform="matrix(0.99999986,6.0013347e-4,5.3392156e-4,-0.88928369,590.9292,221.335)"><tspan
         id="tspan134"
         y="0"
         x="0 124.29335 247.66391 371.38937 497.03143 617.63361 752.21967 863.66486"></tspan></text>
<g
       id="g138"><g
         id="g140"><g
           id="g146"><g
             id="g148"><path
               id="path156"
               style="fill:url(#linearGradient154);stroke:none"
               d="m 632.629,470.317 c -12.659,0 -23.442,-1.604 -32.348,-4.805 v 0 c -8.908,-3.205 -16.097,-7.736 -21.565,-13.596 v 0 c -5.472,-5.861 -9.456,-12.973 -11.955,-21.33 v 0 c -2.502,-8.363 -3.751,-17.698 -3.751,-28.012 v 0 -35.16 c 0,-10.314 1.249,-19.653 3.751,-28.01 v 0 c 2.499,-8.363 6.483,-15.472 11.955,-21.331 v 0 c 5.468,-5.861 12.657,-10.395 21.565,-13.596 v 0 c 8.906,-3.205 19.689,-4.805 32.348,-4.805 v 0 h 131.968 v 44.302 h -127.75 c -9.533,0 -16.173,2.069 -19.923,6.211 v 0 c -3.751,4.14 -5.626,11.288 -5.626,21.448 v 0 28.598 c 0,10.467 1.911,17.657 5.743,21.565 v 0 c 3.826,3.903 10.43,5.86 19.806,5.86 v 0 h 81.573 c 1.406,0 2.109,-0.784 2.109,-2.345 v 0 -22.971 h 1.875 l 44.772,16.642 v 44.302 c 0,4.689 -2.268,7.033 -6.799,7.033 v 0 z" /></g></g></g></g><g
       id="g158"><g
         id="g160"><g
           id="g166"><g
             id="g168"><path
               id="path176"
               style="fill:url(#linearGradient174);stroke:none"
               d="m 786.16,299.672 h 48.288 V 470.317 H 786.16 Z" /></g></g></g></g><g
       id="g178"><g
         id="g180"><g
           id="g186"><g
             id="g188"><path
               id="path196"
               style="fill:url(#linearGradient194);stroke:none"
               d="m 923.754,470.317 c -12.658,0 -23.442,-1.604 -32.348,-4.805 v 0 c -8.908,-3.205 -16.098,-7.736 -21.565,-13.596 v 0 c -5.472,-5.861 -9.456,-12.973 -11.955,-21.33 v 0 c -2.502,-8.363 -3.75,-17.698 -3.75,-28.012 v 0 -35.16 c 0,-10.314 1.248,-19.653 3.75,-28.01 v 0 c 2.499,-8.363 6.483,-15.472 11.955,-21.331 v 0 c 5.467,-5.861 12.657,-10.395 21.565,-13.596 v 0 c 8.906,-3.205 19.69,-4.805 32.348,-4.805 v 0 h 131.968 v 44.302 H 927.973 c -9.534,0 -16.174,2.069 -19.924,6.211 v 0 c -3.752,4.14 -5.626,11.288 -5.626,21.448 v 0 28.598 c 0,10.467 1.911,17.657 5.743,21.565 v 0 c 3.826,3.903 10.43,5.86 19.807,5.86 v 0 h 81.572 c 1.406,0 2.109,-0.784 2.109,-2.345 v 0 -22.971 h 1.876 l 44.77,16.642 v 44.302 c 0,4.689 -2.267,7.033 -6.799,7.033 v 0 z" /></g></g></g></g><g
       id="g198"><g
         id="g200"><g
           id="g206"><g
             id="g208"><path
               id="path216"
               style="fill:url(#linearGradient214);stroke:none"
               d="M 1077.285,470.317 V 312.799 c 0,-4.22 0.937,-7.465 2.814,-9.729 v 0 c 1.875,-2.267 5.076,-3.398 9.61,-3.398 v 0 h 175.099 v 44.536 h -133.61 c -2.19,0 -3.674,0.469 -4.454,1.406 v 0 c -0.783,0.939 -1.172,2.345 -1.172,4.22 v 0 120.483 z" /></g></g></g></g><g
       id="g218"><g
         id="g220"><g
           id="g226"><g
             id="g228"><path
               id="path236"
               style="fill:url(#linearGradient234);stroke:none"
               d="m 1342.394,470.317 c -12.657,0 -23.439,-1.604 -32.347,-4.805 v 0 c -8.907,-3.205 -16.097,-7.736 -21.565,-13.596 v 0 c -5.472,-5.861 -9.457,-12.973 -11.954,-21.33 v 0 c -2.502,-8.363 -3.751,-17.698 -3.751,-28.012 v 0 -35.16 c 0,-10.314 1.249,-19.653 3.751,-28.01 v 0 c 2.497,-8.363 6.482,-15.472 11.954,-21.331 v 0 c 5.468,-5.861 12.658,-10.395 21.565,-13.596 v 0 c 8.908,-3.205 19.69,-4.805 32.347,-4.805 v 0 h 75.947 c 12.658,0 23.4,1.6 32.23,4.805 v 0 c 8.828,3.201 15.977,7.735 21.448,13.596 v 0 c 5.469,5.859 9.454,12.968 11.955,21.331 v 0 c 2.497,8.357 3.75,17.696 3.75,28.01 v 0 35.16 c 0,10.314 -1.253,19.649 -3.75,28.012 v 0 c -2.501,8.357 -6.486,15.469 -11.955,21.33 v 0 c -5.471,5.86 -12.62,10.391 -21.448,13.596 v 0 c -8.83,3.201 -19.572,4.805 -32.23,4.805 v 0 z m -3.866,-125.288 c -4.143,0.702 -7.502,2.029 -10.079,3.985 v 0 c -2.58,1.952 -4.454,4.725 -5.627,8.321 v 0 c -1.172,3.593 -1.758,8.358 -1.758,14.298 v 0 22.503 c 0,6.406 0.352,11.757 1.055,16.056 v 0 c 0.703,4.297 1.992,7.736 3.867,10.314 v 0 c 1.877,2.579 4.49,4.414 7.853,5.509 v 0 c 3.359,1.092 7.618,1.641 12.775,1.641 v 0 h 67.273 c 9.219,0 15.782,-1.957 19.69,-5.86 v 0 c 3.905,-3.908 5.861,-11.098 5.861,-21.565 v 0 -22.504 c 0,-6.409 -0.352,-11.801 -1.055,-16.174 v 0 c -0.703,-4.375 -1.994,-7.852 -3.868,-10.43 v 0 c -1.875,-2.578 -4.494,-4.417 -7.853,-5.509 v 0 c -3.362,-1.095 -7.619,-1.64 -12.775,-1.64 v 0 h -60.006 c -6.095,0 -11.215,0.352 -15.353,1.055" /></g></g></g></g><g
       id="g238"><g
         id="g240"><g
           id="g246"><g
             id="g248"><path
               id="path256"
               style="fill:url(#linearGradient254);stroke:none"
               d="m 634.629,471.316 c -12.658,0 -23.442,-1.603 -32.348,-4.805 v 0 c -8.908,-3.205 -16.098,-7.734 -21.565,-13.595 v 0 c -5.472,-5.86 -9.456,-12.973 -11.955,-21.33 v 0 c -2.501,-8.363 -3.75,-17.699 -3.75,-28.012 v 0 -35.16 c 0,-10.313 1.249,-19.653 3.75,-28.011 v 0 c 2.499,-8.362 6.483,-15.471 11.955,-21.331 v 0 c 5.467,-5.86 12.657,-10.395 21.565,-13.595 v 0 c 8.906,-3.205 19.69,-4.805 32.348,-4.805 v 0 h 131.968 v 44.302 H 638.848 c -9.534,0 -16.174,2.069 -19.924,6.211 v 0 c -3.752,4.139 -5.626,11.288 -5.626,21.449 v 0 28.597 c 0,10.467 1.911,17.657 5.743,21.565 v 0 c 3.826,3.903 10.43,5.86 19.807,5.86 v 0 h 81.572 c 1.406,0 2.109,-0.784 2.109,-2.345 v 0 -22.971 h 1.876 l 44.771,16.642 v 44.302 c 0,4.689 -2.268,7.032 -6.8,7.032 v 0 z" /></g></g></g></g><g
       id="g258"><g
         id="g260"><g
           id="g266"><g
             id="g268"><path
               id="path276"
               style="fill:url(#linearGradient274);stroke:none"
               d="m 788.16,300.672 h 48.288 V 471.317 H 788.16 Z" /></g></g></g></g><g
       id="g278"><g
         id="g280"><g
           id="g286"><g
             id="g288"><path
               id="path296"
               style="fill:url(#linearGradient294);stroke:none"
               d="m 925.753,471.316 c -12.657,0 -23.441,-1.603 -32.346,-4.805 v 0 c -8.909,-3.205 -16.099,-7.734 -21.566,-13.595 v 0 c -5.472,-5.86 -9.457,-12.973 -11.954,-21.33 v 0 c -2.502,-8.363 -3.751,-17.699 -3.751,-28.012 v 0 -35.16 c 0,-10.313 1.249,-19.653 3.751,-28.011 v 0 c 2.497,-8.362 6.482,-15.471 11.954,-21.331 v 0 c 5.467,-5.86 12.657,-10.395 21.566,-13.595 v 0 c 8.905,-3.205 19.689,-4.805 32.346,-4.805 v 0 h 131.968 v 44.302 H 929.973 c -9.534,0 -16.174,2.069 -19.925,6.211 v 0 c -3.75,4.139 -5.625,11.288 -5.625,21.449 v 0 28.597 c 0,10.467 1.911,17.657 5.743,21.565 v 0 c 3.826,3.903 10.43,5.86 19.807,5.86 v 0 h 81.572 c 1.406,0 2.11,-0.784 2.11,-2.345 v 0 -22.971 h 1.874 l 44.771,16.642 v 44.302 c 0,4.689 -2.267,7.032 -6.798,7.032 v 0 z" /></g></g></g></g><g
       id="g298"><g
         id="g300"><g
           id="g306"><g
             id="g308"><path
               id="path316"
               style="fill:url(#linearGradient314);stroke:none"
               d="M 1079.285,471.316 V 313.798 c 0,-4.219 0.937,-7.464 2.814,-9.728 v 0 c 1.875,-2.267 5.076,-3.398 9.61,-3.398 v 0 h 175.099 v 44.536 h -133.61 c -2.191,0 -3.674,0.468 -4.454,1.406 v 0 c -0.783,0.939 -1.172,2.345 -1.172,4.22 v 0 120.482 z" /></g></g></g></g><g
       id="g318"><g
         id="g320"><g
           id="g326"><g
             id="g328"><path
               id="path336"
               style="fill:url(#linearGradient334);stroke:none"
               d="m 1344.395,471.316 c -12.658,0 -23.44,-1.603 -32.348,-4.805 v 0 c -8.907,-3.205 -16.097,-7.734 -21.565,-13.595 v 0 c -5.471,-5.86 -9.456,-12.973 -11.955,-21.33 v 0 c -2.501,-8.363 -3.75,-17.699 -3.75,-28.012 v 0 -35.16 c 0,-10.313 1.249,-19.653 3.75,-28.011 v 0 c 2.499,-8.362 6.484,-15.471 11.955,-21.331 v 0 c 5.468,-5.86 12.658,-10.395 21.565,-13.595 v 0 c 8.908,-3.205 19.69,-4.805 32.348,-4.805 v 0 h 75.945 c 12.659,0 23.401,1.6 32.231,4.805 v 0 c 8.827,3.2 15.977,7.735 21.448,13.595 v 0 c 5.468,5.86 9.454,12.969 11.955,21.331 v 0 c 2.497,8.358 3.751,17.698 3.751,28.011 v 0 35.16 c 0,10.313 -1.254,19.649 -3.751,28.012 v 0 c -2.501,8.357 -6.487,15.47 -11.955,21.33 v 0 c -5.471,5.861 -12.621,10.39 -21.448,13.595 v 0 c -8.83,3.202 -19.572,4.805 -32.231,4.805 v 0 z m -3.868,-125.288 c -4.142,0.703 -7.501,2.03 -10.079,3.986 v 0 c -2.579,1.952 -4.454,4.725 -5.625,8.321 v 0 c -1.172,3.593 -1.758,8.357 -1.758,14.299 v 0 22.502 c 0,6.406 0.351,11.757 1.054,16.056 v 0 c 0.704,4.297 1.992,7.735 3.867,10.314 v 0 c 1.876,2.579 4.49,4.414 7.853,5.509 v 0 c 3.358,1.092 7.618,1.641 12.775,1.641 v 0 h 67.274 c 9.219,0 15.781,-1.957 19.689,-5.86 v 0 c 3.905,-3.908 5.86,-11.098 5.86,-21.565 v 0 -22.504 c 0,-6.409 -0.351,-11.801 -1.055,-16.174 v 0 c -0.702,-4.376 -1.992,-7.852 -3.868,-10.43 v 0 c -1.874,-2.578 -4.493,-4.417 -7.852,-5.509 v 0 c -3.363,-1.094 -7.618,-1.64 -12.774,-1.64 v 0 h -60.007 c -6.095,0 -11.215,0.352 -15.354,1.054" /></g></g></g></g></g></svg>